<svg xmlns="http://www.w3.org/2000/svg" viewBox="0 0 967.37 182.62"><defs><style>.cls-1{fill:#14a1d6;}.cls-2{fill:#6bcef4;}.cls-3{fill:#00779f;}.cls-4{fill:#025c7b;}.cls-5{fill:#0077a0;}</style></defs><g id="Layer_2" data-name="Layer 2"><g id="text"><rect class="cls-1" x="78.08" y="88.96" width="12.47" height="14.03"/><polyline class="cls-2" points="76.03 149.11 76.03 176.77 65.87 176.77 65.87 147.4"/><path class="cls-3" d="M62.29,176.77H76a0,0,0,0,1,0,0v5.85a0,0,0,0,1,0,0H56.82a0,0,0,0,1,0,0v-.38A5.47,5.47,0,0,1,62.29,176.77Z"/><polyline class="cls-1" points="102.76 147.4 102.76 176.77 92.6 176.77 92.6 149.11"/><path class="cls-4" d="M92.6,176.77h19.21a0,0,0,0,1,0,0v5.85a0,0,0,0,1,0,0H98.07a5.47,5.47,0,0,1-5.47-5.47v-.38A0,0,0,0,1,92.6,176.77Z" transform="translate(204.41 359.4) rotate(-180)"/><path class="cls-2" d="M46.23,116.12a33.46,33.46,0,0,1-7.33-.79c-7.33-1.63-12.7-5.41-16.62-8.18l0,0,4.89-6.94,0,0c3.51,2.48,7.89,5.57,13.56,6.83,7.57,1.68,16.58-.28,25.36-5.52l4.36,7.29C62.4,113.62,54,116.12,46.23,116.12Z"/><path class="cls-3" d="M15.45,112.36A15.47,15.47,0,0,1,0,96.91H8.49a7.06,7.06,0,0,0,7,7,7,7,0,1,0,0-13.92V81.46a15.45,15.45,0,0,1,0,30.9Z"/><path class="cls-1" d="M122.4,116.12a33.46,33.46,0,0,0,7.33-.79c7.33-1.63,12.7-5.41,16.62-8.18l0,0-4.9-6.94,0,0c-3.52,2.48-7.9,5.57-13.57,6.83-7.57,1.68-16.58-.28-25.36-5.52l-4.35,7.29C106.23,113.62,114.6,116.12,122.4,116.12Z"/><path class="cls-4" d="M153.18,112.36a15.47,15.47,0,0,0,15.45-15.45h-8.49a7,7,0,1,1-7-7V81.46a15.45,15.45,0,0,0,0,30.9Z"/><path class="cls-2" d="M28.79,42.67h6.3a0,0,0,0,1,0,0V60.76a0,0,0,0,1,0,0h-6.3a8.45,8.45,0,0,1-8.45-8.45V51.13A8.45,8.45,0,0,1,28.79,42.67Z"/><path class="cls-1" d="M142,42.67h6.3a0,0,0,0,1,0,0V60.76a0,0,0,0,1,0,0H142a8.45,8.45,0,0,1-8.45-8.45V51.13A8.45,8.45,0,0,1,142,42.67Z" transform="translate(281.85 103.43) rotate(180)"/><path class="cls-3" d="M141.88,49.18C141.88,75,116.11,96,84.32,96a68.93,68.93,0,0,1-22.7-3.78C41.11,85,26.76,68.46,26.76,49.18c0-22.27,19.13-40.9,44.76-45.63a70.53,70.53,0,0,1,12.8-1.16C116.11,2.39,141.88,23.33,141.88,49.18Z"/><path class="cls-4" d="M141.88,49.18C141.88,75,116.11,96,84.32,96a68.93,68.93,0,0,1-22.7-3.78A85.32,85.32,0,0,0,80.92,92c13.55-1.8,29.9-7.55,37.44-19,4.39-6.63,6.66-13.32,7.64-24.37a27,27,0,0,0-11.69-24.62c-6.31-4.12-14.49-3.22-22-2.7s-16.1.1-21-5.6l.24-12.22a70.53,70.53,0,0,1,12.8-1.16C116.11,2.39,141.88,23.33,141.88,49.18Z"/><path class="cls-3" d="M110,113.41v21.77a13.94,13.94,0,0,1-13.94,13.93H72.56a13.94,13.94,0,0,1-13.94-13.93V113.41A13.94,13.94,0,0,1,72.56,99.47H96.07A13.94,13.94,0,0,1,110,113.41Z"/><circle class="cls-2" cx="84.32" cy="124.29" r="16.86"/><circle class="cls-3" cx="84.32" cy="124.29" r="10.54"/><path class="cls-2" d="M129.93,40.7V52.93a10,10,0,0,1-10.05,10H48.75a10,10,0,0,1-10-10V40.7a10,10,0,0,1,10-10.05h71.13a10.39,10.39,0,0,1,1.26.08A10.05,10.05,0,0,1,129.93,40.7Z"/><path class="cls-1" d="M129.93,40.7V52.93a10.07,10.07,0,0,1-6.39,9.36A64.77,64.77,0,0,0,126,48.69a27.43,27.43,0,0,0-4.86-18A10.05,10.05,0,0,1,129.93,40.7Z"/><path class="cls-2" d="M107.67,4C104.93,7.85,98.19,17,96.75,17.64,95,18.47,85.53,18.7,84.32,18.7s-10.7-.23-12.44-1.06A9.07,9.07,0,0,1,70,15.83C67.39,12.82,63,6.91,61,4A68.76,68.76,0,0,1,84.32,0,70.89,70.89,0,0,1,95.61.9,67,67,0,0,1,107.67,4Z"/><path class="cls-4" d="M110,113.41v21.77a13.94,13.94,0,0,1-13.94,13.93H72.56a13.9,13.9,0,0,1-10.94-5.3c16.86,6.12,40.34,3.68,40.34-10.37,0-7.34,1-16.3,0-23a16.38,16.38,0,0,0-6-11h.11A13.94,13.94,0,0,1,110,113.41Z"/><path class="cls-1" d="M107.67,4C104.93,7.85,98.19,17,96.75,17.64,95,18.47,85.53,18.7,84.32,18.7s-10.7-.23-12.44-1.06A9.07,9.07,0,0,1,70,15.83c16,3.69,23.45.26,26.27-5.27,1.64-3.23.43-7.27-.68-9.66A67,67,0,0,1,107.67,4Z"/><path class="cls-3" d="M68,53.52A3.62,3.62,0,0,1,64.4,49.9a5.43,5.43,0,0,0-10.86,0,3.61,3.61,0,1,1-7.22,0,12.65,12.65,0,0,1,25.3,0A3.61,3.61,0,0,1,68,53.52Z"/><path class="cls-3" d="M118.7,53.52a3.62,3.62,0,0,1-3.61-3.62,5.43,5.43,0,0,0-10.86,0,3.61,3.61,0,1,1-7.22,0,12.66,12.66,0,0,1,25.31,0A3.62,3.62,0,0,1,118.7,53.52Z"/><path class="cls-5" d="M231.35,33.58H196.07V0H302.48V33.58H267.31V181.72h-36Z"/><path class="cls-5" d="M319.78,181.72V0h36.07V181.72Z"/><path class="cls-5" d="M558.26,0V181.72H522.08V62L497,181.72H453.1L427.77,62V181.72H391.7V0h50.09L475,147.68,508.17,0Z"/><path class="cls-5" d="M760.55,0V181.72H724.37V62l-25.1,119.75H655.39L630.06,62V181.72H594V0h50.1l33.24,147.68L710.46,0Z"/><path class="cls-5" d="M863.79,33.58H829.64V62.31q0,11.64,17.08,11.64,22.39,0,37.31,12Q900,98.6,900,119.41V157a22.77,22.77,0,0,1-8,17.53,26.51,26.51,0,0,1-18.66,7.24h-53a26.89,26.89,0,0,1-18.77-7.24A22.9,22.9,0,0,1,793.57,157V120.31h36.07v27.82h34.15V119.41q0-11.76-17.07-11.76-22.28,0-37.2-11.87-15.94-12.66-15.95-33.47V24.76a23.26,23.26,0,0,1,7.92-17.64A27.14,27.14,0,0,1,820.26,0h53A26.75,26.75,0,0,1,892,7.12q8,7.36,8,17.64V61.29H863.79Z"/><path class="cls-5" d="M931.3,181.72V0h36.07V181.72Z"/></g></g></svg>