<svg xmlns="http://www.w3.org/2000/svg" viewBox="0 0 771.3 655.41"><defs><style>.cls-1{fill:#14a1d6;}.cls-2{fill:#6bcef4;}.cls-3{fill:#00779f;}.cls-4{fill:#025c7b;}.cls-5{fill:#0077a0;}</style></defs><g id="Layer_2" data-name="Layer 2"><g id="text"><rect class="cls-1" x="367.23" y="214.94" width="30.13" height="33.9"/><polyline class="cls-2" points="362.28 360.28 362.28 427.12 337.73 427.12 337.73 356.15"/><path class="cls-3" d="M323.15,427.12h39.13a0,0,0,0,1,0,0v14.14a0,0,0,0,1,0,0H315.86a0,0,0,0,1,0,0v-6.85A7.29,7.29,0,0,1,323.15,427.12Z"/><polyline class="cls-1" points="426.86 356.15 426.86 427.12 402.31 427.12 402.31 360.28"/><path class="cls-4" d="M402.31,427.12h46.42a0,0,0,0,1,0,0v14.14a0,0,0,0,1,0,0H409.6a7.29,7.29,0,0,1-7.29-7.29v-6.85A0,0,0,0,1,402.31,427.12Z" transform="translate(851.04 868.37) rotate(-180)"/><path class="cls-2" d="M290.28,280.56a81.6,81.6,0,0,1-17.72-1.9c-17.71-3.94-30.68-13.08-40.15-19.75l-.09-.07,11.82-16.77.09.07c8.5,6,19.08,13.45,32.78,16.49,18.3,4.07,40.06-.67,61.28-13.34l10.52,17.61C329.35,274.52,309.12,280.56,290.28,280.56Z"/><path class="cls-3" d="M215.91,271.49a37.38,37.38,0,0,1-37.34-37.34h20.52a16.82,16.82,0,1,0,16.82-16.81V196.82a37.34,37.34,0,0,1,0,74.67Z"/><path class="cls-1" d="M474.31,280.56a81.54,81.54,0,0,0,17.72-1.9c17.71-3.94,30.68-13.08,40.15-19.75l.09-.07-11.82-16.77-.09.07c-8.5,6-19.08,13.45-32.78,16.49-18.3,4.07-40.06-.67-61.28-13.34L415.78,262.9C435.24,274.52,455.47,280.56,474.31,280.56Z"/><path class="cls-4" d="M548.68,271.49A37.38,37.38,0,0,0,586,234.15H565.5a16.82,16.82,0,1,1-16.82-16.81V196.82a37.34,37.34,0,0,0,0,74.67Z"/><path class="cls-2" d="M239,103.11h24.37a0,0,0,0,1,0,0v43.7a0,0,0,0,1,0,0H239a11.27,11.27,0,0,1-11.27-11.27V114.37A11.27,11.27,0,0,1,239,103.11Z"/><path class="cls-1" d="M512.52,103.11h24.37a0,0,0,0,1,0,0v43.7a0,0,0,0,1,0,0H512.52a11.27,11.27,0,0,1-11.27-11.27V114.37A11.27,11.27,0,0,1,512.52,103.11Z" transform="translate(1038.14 249.92) rotate(180)"/><path class="cls-3" d="M521.37,118.82c0,62.44-62.26,113.06-139.07,113.06a166.38,166.38,0,0,1-54.85-9.14c-49.54-17.29-84.23-57.32-84.23-103.92C243.22,65,289.45,20,351.38,8.58A169.9,169.9,0,0,1,382.3,5.77C459.11,5.77,521.37,56.38,521.37,118.82Z"/><path class="cls-4" d="M521.37,118.82c0,62.44-62.26,113.06-139.07,113.06a166.38,166.38,0,0,1-54.85-9.14,205.4,205.4,0,0,0,46.63-.4c32.76-4.34,72.27-18.24,90.48-45.8,10.6-16,16.09-32.19,18.45-58.89,2-23-8.88-46.87-28.24-59.5-15.24-9.95-35-7.78-53.17-6.5s-38.9.22-50.8-13.55l.58-29.52A169.9,169.9,0,0,1,382.3,5.77C459.11,5.77,521.37,56.38,521.37,118.82Z"/><path class="cls-3" d="M444.37,274v52.6a33.67,33.67,0,0,1-33.67,33.67H353.89a33.67,33.67,0,0,1-33.67-33.67V274a33.67,33.67,0,0,1,33.67-33.67H410.7A33.67,33.67,0,0,1,444.37,274Z"/><circle class="cls-2" cx="382.3" cy="300.31" r="40.73"/><circle class="cls-3" cx="382.3" cy="300.31" r="25.47"/><path class="cls-2" d="M492.5,98.33v29.56a24.26,24.26,0,0,1-15.44,22.6,24,24,0,0,1-8.83,1.66H296.36a24.27,24.27,0,0,1-24.27-24.26V98.33a24.28,24.28,0,0,1,24.27-24.27H468.23a25.58,25.58,0,0,1,3,.19A24.27,24.27,0,0,1,492.5,98.33Z"/><path class="cls-1" d="M492.5,98.33v29.56a24.26,24.26,0,0,1-15.44,22.6c2.88-9.23,4.79-19.77,5.95-32.84a66.34,66.34,0,0,0-11.74-43.4A24.27,24.27,0,0,1,492.5,98.33Z"/><path class="cls-2" d="M438.72,9.7C432.1,19,415.82,41,412.34,42.61c-4.2,2-27.12,2.57-30,2.57s-25.85-.56-30-2.57c-.86-.41-2.47-2-4.52-4.37C341.4,31,330.87,16.7,325.87,9.7A165.92,165.92,0,0,1,382.3,0a170.54,170.54,0,0,1,27.28,2.18A160.83,160.83,0,0,1,438.72,9.7Z"/><path class="cls-4" d="M444.37,274v52.6a33.67,33.67,0,0,1-33.67,33.67H353.89a33.6,33.6,0,0,1-26.43-12.81c40.73,14.78,97.46,8.9,97.46-25.05,0-17.73,2.42-39.4,0-55.52-1.94-13-7.54-21-14.49-26.56h.27A33.67,33.67,0,0,1,444.37,274Z"/><path class="cls-1" d="M438.72,9.7C432.1,19,415.82,41,412.34,42.61c-4.2,2-27.12,2.57-30,2.57s-25.85-.56-30-2.57c-.86-.41-2.47-2-4.52-4.37,38.64,8.93,56.67.64,63.48-12.71,4-7.82,1-17.59-1.64-23.35A160.83,160.83,0,0,1,438.72,9.7Z"/><path class="cls-3" d="M342.9,129.31a8.73,8.73,0,0,1-8.73-8.73,13.12,13.12,0,1,0-26.24,0,8.73,8.73,0,1,1-17.45,0,30.58,30.58,0,0,1,61.15,0A8.73,8.73,0,0,1,342.9,129.31Z"/><path class="cls-3" d="M465.39,129.31a8.73,8.73,0,0,1-8.73-8.73,13.12,13.12,0,1,0-26.24,0,8.73,8.73,0,0,1-17.46,0,30.58,30.58,0,0,1,61.15,0A8.72,8.72,0,0,1,465.39,129.31Z"/><path class="cls-5" d="M35.28,507.27H0V473.69H106.41v33.58H71.24V655.41h-36Z"/><path class="cls-5" d="M123.71,655.41V473.69h36.07V655.41Z"/><path class="cls-5" d="M362.18,473.69V655.41H326V535.66L300.9,655.41H257L231.69,535.66V655.41H195.62V473.69h50.1L279,621.37l33.13-147.68Z"/><path class="cls-5" d="M564.48,473.69V655.41H528.29V535.66l-25.1,119.75H459.32L434,535.66V655.41H397.92V473.69H448l33.24,147.68,33.14-147.68Z"/><path class="cls-5" d="M667.72,507.27H633.57V536q0,11.64,17.07,11.64,22.4,0,37.32,12,15.94,12.66,15.94,33.47v37.54a22.76,22.76,0,0,1-8,17.53,26.54,26.54,0,0,1-18.66,7.24h-53a26.92,26.92,0,0,1-18.77-7.24,22.92,22.92,0,0,1-7.91-17.53V594h36.07v27.82h34.15V593.1q0-11.76-17.08-11.76-22.27,0-37.2-11.87Q597.49,556.81,597.5,536V498.45a23.28,23.28,0,0,1,7.91-17.64,27.18,27.18,0,0,1,18.77-7.12h53a26.79,26.79,0,0,1,18.66,7.12,23.12,23.12,0,0,1,8,17.64V535H667.72Z"/><path class="cls-5" d="M735.23,655.41V473.69H771.3V655.41Z"/></g></g></svg>